<svg width="1600" height="900" viewBox="0 0 1600 900" fill="none" xmlns="http://www.w3.org/2000/svg">
  <defs>
    <linearGradient id="bg1" x1="0" y1="0" x2="1" y2="1">
      <stop offset="0%" stop-color="#0B0A0F"/>
      <stop offset="45%" stop-color="#10131B"/>
      <stop offset="100%" stop-color="#0A0F13"/>
    </linearGradient>
    <radialGradient id="gold" cx="0.5" cy="0.2" r="0.6">
      <stop offset="0%" stop-color="#F5D07A" stop-opacity="0.35"/>
      <stop offset="100%" stop-color="#F5D07A" stop-opacity="0"/>
    </radialGradient>
    <radialGradient id="blue" cx="0.15" cy="0.7" r="0.5">
      <stop offset="0%" stop-color="#60A5FA" stop-opacity="0.25"/>
      <stop offset="100%" stop-color="#60A5FA" stop-opacity="0"/>
    </radialGradient>
  </defs>
  <rect width="1600" height="900" fill="url(#bg1)"/>
  <rect width="1600" height="900" fill="url(#gold)"/>
  <rect width="1600" height="900" fill="url(#blue)"/>
  <g opacity="0.35">
    <path d="M0 660C220 600 380 620 520 700C680 790 880 820 1100 740C1280 675 1440 665 1600 700V900H0V660Z" fill="#0F172A"/>
    <path d="M0 700C180 640 380 640 560 730C720 810 920 840 1140 770C1320 715 1460 700 1600 720V900H0V700Z" fill="#111827"/>
  </g>
  <g opacity="0.6">
    <circle cx="1280" cy="200" r="120" fill="#FACC15" fill-opacity="0.1"/>
    <circle cx="1350" cy="240" r="180" fill="#38BDF8" fill-opacity="0.08"/>
  </g>
  <g opacity="0.65">
    <rect x="180" y="120" width="360" height="10" rx="5" fill="#FDE68A"/>
    <rect x="180" y="150" width="220" height="8" rx="4" fill="#E5E7EB" fill-opacity="0.6"/>
  </g>
</svg>
