<svg width="1600" height="900" viewBox="0 0 1600 900" fill="none" xmlns="http://www.w3.org/2000/svg">
  <defs>
    <linearGradient id="bg2" x1="0" y1="0" x2="1" y2="1">
      <stop offset="0%" stop-color="#0A0A0E"/>
      <stop offset="50%" stop-color="#121826"/>
      <stop offset="100%" stop-color="#0B1117"/>
    </linearGradient>
    <radialGradient id="rose" cx="0.8" cy="0.15" r="0.6">
      <stop offset="0%" stop-color="#F472B6" stop-opacity="0.2"/>
      <stop offset="100%" stop-color="#F472B6" stop-opacity="0"/>
    </radialGradient>
    <radialGradient id="teal" cx="0.2" cy="0.8" r="0.6">
      <stop offset="0%" stop-color="#34D399" stop-opacity="0.18"/>
      <stop offset="100%" stop-color="#34D399" stop-opacity="0"/>
    </radialGradient>
  </defs>
  <rect width="1600" height="900" fill="url(#bg2)"/>
  <rect width="1600" height="900" fill="url(#rose)"/>
  <rect width="1600" height="900" fill="url(#teal)"/>
  <g opacity="0.35">
    <path d="M0 620C260 560 520 560 740 660C900 730 1100 790 1320 740C1460 705 1540 690 1600 710V900H0V620Z" fill="#0F172A"/>
    <path d="M0 700C240 640 520 650 760 740C940 810 1140 850 1360 800C1480 770 1560 760 1600 770V900H0V700Z" fill="#111827"/>
  </g>
  <g opacity="0.55">
    <circle cx="320" cy="200" r="150" fill="#FDE68A" fill-opacity="0.12"/>
    <circle cx="260" cy="180" r="90" fill="#38BDF8" fill-opacity="0.12"/>
  </g>
  <g opacity="0.65">
    <rect x="1040" y="120" width="300" height="10" rx="5" fill="#FDE68A"/>
    <rect x="1040" y="150" width="240" height="8" rx="4" fill="#E5E7EB" fill-opacity="0.6"/>
  </g>
</svg>
