<svg width="1200" height="630" viewBox="0 0 1200 630" fill="none" xmlns="http://www.w3.org/2000/svg">
  <defs>
    <linearGradient id="bg" x1="0" y1="0" x2="1" y2="1">
      <stop offset="0%" stop-color="#0A0B0F"/>
      <stop offset="50%" stop-color="#101623"/>
      <stop offset="100%" stop-color="#0B1117"/>
    </linearGradient>
    <radialGradient id="gold" cx="0.2" cy="0.2" r="0.6">
      <stop offset="0%" stop-color="#F5D07A" stop-opacity="0.3"/>
      <stop offset="100%" stop-color="#F5D07A" stop-opacity="0"/>
    </radialGradient>
    <radialGradient id="blue" cx="0.9" cy="0.8" r="0.7">
      <stop offset="0%" stop-color="#38BDF8" stop-opacity="0.22"/>
      <stop offset="100%" stop-color="#38BDF8" stop-opacity="0"/>
    </radialGradient>
  </defs>
  <rect width="1200" height="630" fill="url(#bg)"/>
  <rect width="1200" height="630" fill="url(#gold)"/>
  <rect width="1200" height="630" fill="url(#blue)"/>

  <g opacity="0.3">
    <path d="M0 470C220 430 420 440 620 520C820 600 1020 610 1200 560V630H0V470Z" fill="#0F172A"/>
    <path d="M0 510C240 470 460 480 680 550C880 620 1060 620 1200 590V630H0V510Z" fill="#111827"/>
  </g>

  <g transform="translate(90,90)">
    <circle cx="70" cy="70" r="70" fill="#F5D07A" fill-opacity="0.12"/>
    <circle cx="70" cy="70" r="58" stroke="#F5D07A" stroke-opacity="0.45" stroke-width="3"/>
    <text x="70" y="86" text-anchor="middle" font-family="Georgia, 'Times New Roman', serif" font-size="48" fill="#F5D07A">JNC</text>
  </g>

  <text x="90" y="270" font-family="Georgia, 'Times New Roman', serif" font-size="56" fill="#FFFFFF" font-weight="600">
    Jude Nnam Choral
  </text>
  <text x="90" y="330" font-family="Arial, Helvetica, sans-serif" font-size="26" fill="rgba(255,255,255,0.8)">
    Spreading joy through music in Abuja and beyond.
  </text>
  <text x="90" y="390" font-family="Arial, Helvetica, sans-serif" font-size="20" fill="rgba(255,255,255,0.7)">
    Auditions | Events | Community
  </text>
</svg>
